<?xml version="1.0" standalone="no"?>
<!DOCTYPE svg PUBLIC "-//W3C//DTD SVG 20010904//EN"
 "http://www.w3.org/TR/2001/REC-SVG-20010904/DTD/svg10.dtd">
<svg version="1.0" xmlns="http://www.w3.org/2000/svg"
 width="80px" height="80px" viewBox="0 0 1060.000000 1060.000000"
 preserveAspectRatio="xMidYMid meet">

<g transform="translate(0.000000,1060.000000) scale(0.100000,-0.100000)"
fill="#ff3d3d" stroke="none">
<path fill="#74c0fc" d="M4950 7293 c-205 -245 -365 -443 -354 -439 10 5 55 21 100 36 l81 28
49 -139 49 -139 735 441 c404 242 739 444 743 448 6 6 -982 211 -1019 211 -6
0 -179 -201 -384 -447z"/>
<path fill="#FFD43B" d="M3498 7655 c-35 -20 -48 -44 -48 -90 0 -80 40 -105 170 -105 248 0
400 -77 479 -244 79 -164 94 -297 85 -741 -5 -265 -3 -333 9 -397 27 -135 91
-228 186 -271 71 -33 257 -36 426 -7 302 51 802 201 1298 391 71 27 134 49
141 49 8 0 0 -43 -27 -138 l-39 -139 -132 -56 c-72 -31 -340 -147 -596 -257
-256 -111 -577 -249 -714 -308 -211 -90 -252 -111 -268 -137 -10 -16 -18 -40
-18 -53 0 -31 26 -79 50 -92 10 -5 80 -13 154 -17 75 -3 136 -7 136 -7 0 -1
-9 -30 -20 -64 -32 -103 -24 -193 23 -263 92 -136 280 -91 371 89 29 58 50
163 41 209 l-6 33 271 0 c214 0 271 -3 266 -12 -65 -158 -37 -326 64 -378 154
-79 339 83 348 306 l4 81 96 7 c54 3 123 6 154 6 46 0 62 5 85 24 24 21 28 32
28 76 0 44 -4 55 -28 76 l-28 24 -697 0 c-525 1 -692 3 -677 12 10 6 293 130
629 274 335 145 617 271 627 281 19 19 179 568 179 615 0 37 -44 86 -84 93
-24 5 -58 -4 -136 -35 -824 -329 -1565 -536 -1789 -501 -115 18 -122 52 -119
552 2 335 0 397 -16 484 -64 352 -219 541 -503 616 -106 28 -336 37 -375 14z"/>
<path d="M5780 6635 c-344 -206 -622 -375 -618 -375 6 0 564 195 773 270 99
35 357 126 488 171 53 19 95 39 94 44 -2 6 -24 67 -48 137 -24 71 -48 128 -54
128 -5 0 -291 -169 -635 -375z"/>
<path d="M7200 4330 c0 -115 -2 -210 -4 -210 -2 0 -28 12 -57 28 -46 23 -65
27 -139 27 -98 0 -148 -19 -224 -86 -168 -148 -179 -523 -20 -698 54 -60 121
-84 219 -79 87 5 138 25 200 79 l35 31 10 -27 c5 -14 10 -30 10 -34 0 -4 8
-15 18 -24 15 -13 39 -17 110 -17 l92 0 0 610 0 610 -125 0 -125 0 0 -210z
m-33 -367 l28 -20 3 -178 2 -178 -27 -30 c-52 -55 -134 -73 -192 -42 -58 30
-91 163 -72 292 13 87 28 121 73 158 29 24 38 27 95 23 43 -3 71 -10 90 -25z"/>
<path d="M3150 3914 l0 -596 308 4 c289 3 310 5 362 26 132 52 205 127 236
239 42 154 -18 274 -163 329 l-45 18 44 22 c60 31 124 102 138 156 17 59 8
164 -18 214 -31 61 -103 119 -176 144 -91 30 -203 40 -458 40 l-228 0 0 -596z
m556 364 c38 -21 58 -66 57 -128 -2 -109 -51 -140 -223 -140 l-110 0 0 146 0
146 123 -4 c89 -3 130 -8 153 -20z m13 -472 c54 -19 76 -56 75 -127 -1 -69
-21 -104 -75 -131 -27 -14 -60 -18 -161 -18 l-128 0 0 145 0 145 128 -1 c74 0
141 -6 161 -13z"/>
<path d="M4592 4154 c-29 -14 -72 -48 -96 -76 l-43 -49 -7 50 c-10 74 -21 81
-132 81 l-94 0 0 -420 0 -420 125 0 125 0 0 258 c0 256 0 257 24 293 35 51 79
69 169 69 85 0 79 -7 97 100 6 36 13 77 16 91 4 23 1 28 -27 38 -51 18 -101
13 -157 -15z"/>
<path d="M5125 4170 c-96 -20 -245 -97 -245 -126 0 -7 15 -34 33 -60 46 -69
76 -76 163 -35 82 38 131 47 178 31 47 -15 66 -45 73 -113 l5 -54 -88 -7
c-165 -12 -284 -57 -352 -130 -46 -50 -56 -87 -50 -175 6 -79 39 -130 109
-165 44 -22 66 -26 136 -26 96 0 164 22 227 72 23 19 41 27 44 20 2 -6 13 -26
26 -44 22 -33 22 -33 105 -33 l83 0 -1 304 c-2 280 -4 307 -23 359 -25 66 -83
128 -153 161 -55 26 -196 37 -270 21z m203 -572 l-3 -62 -48 -30 c-60 -37
-142 -43 -176 -12 -29 27 -28 85 2 114 27 26 114 50 180 51 l48 1 -3 -62z"/>
<path d="M6163 4170 c-48 -10 -94 -32 -140 -66 -38 -29 -43 -29 -43 -6 0 10
-7 28 -16 40 -14 20 -23 22 -115 22 l-99 0 0 -420 0 -420 130 0 130 0 0 305 0
304 43 25 c82 47 157 42 194 -12 16 -24 18 -56 21 -324 l3 -298 125 0 125 0
-3 318 c-4 349 -8 371 -68 444 -58 71 -185 109 -287 88z"/>
</g>
</svg>
